<svg xmlns="http://www.w3.org/2000/svg" width="682.667" height="682.667" preserveAspectRatio="xMidYMid meet" version="1.0" viewBox="0 0 512 512"><metadata>Created by potrace 1.11, written by Peter Selinger 2001-2013</metadata><g fill="#000" stroke="none"><path d="M2378 5055 c-2 -2 -41 -6 -87 -9 -46 -4 -87 -8 -90 -10 -4 -3 -27 -7 -51 -11 -108 -16 -358 -79 -415 -104 -11 -5 -54 -22 -95 -37 -128 -47 -323 -150 -472 -250 -79 -53 -145 -99 -148 -103 -3 -3 -27 -24 -55 -45 -95 -75 -311 -302 -396 -416 -244 -327 -411 -708 -469 -1070 -7 -41 -14 -84 -16 -95 -25 -132 -25 -653 0 -694 2 -3 7 -31 11 -61 21 -178 145 -561 225 -698 11 -18 20 -37 20 -42 0 -17 174 -295 223 -356 137 -171 299 -338 432 -444 315 -251 706 -432 1092 -505 169 -32 258 -40 463 -40 261 0 392 15 620 71 330 82 679 255 955 474 101 80 301 280 385 385 245 307 424 690 499 1065 37 186 46 280 46 495 0 150 -6 264 -19 355 -38 262 -112 500 -226 735 -136 277 -266 462 -474 671 -125 126 -203 193 -326 280 -436 309 -920 462 -1457 461 -95 0 -174 -1 -175 -2z" transform="translate(0.000000,512.000000) scale(0.100000,-0.100000)"/></g></svg>